# xmcd
#
# Track frame offsets:
#	150
#	13506
#	25128
#	39977
#	53831
#	69521
#	82654
#	96539
#	111543
#	121475
#	137223
#	154885
#	171554
#	183695
#	194042
#	205941
#	216584
#	230473
#	243214
#	255224
#	264464
#	279454
#	292079
#	306807
#	322307
#	335875
#
# Disc length: 4655 seconds
#
# Revision: 0
# Processed by: cddbd v1.5.2PL0 Copyright (c) Steve Scherf et al.
# Submitted via: EasyCDDAExtractor 2010.6.0.0
#
DISCID=99122d1a
DTITLE=George Strait - 50 Number Ones
DYEAR=2004
DGENRE=Country
TTITLE0=A Fire I Can't Put Out
TTITLE1=Ace In The Hole
TTITLE2=All My Ex's Live In Texas
TTITLE3=Am I Blue
TTITLE4=Baby Blue
TTITLE5=Baby's Gotten Good At Goodbye
TTITLE6=Does Fort Worth Ever Cross Your Mind
TTITLE7=Famous Last Words Of A Fool
TTITLE8=Fool Hearted Memory
TTITLE9=I Cross My Heart
TTITLE10=I Hate Everything
TTITLE11=I've Come To Expect It From You
TTITLE12=If I Know Me
TTITLE13=If You Ain't Lovin' (You Ain't Livin')
TTITLE14=It Ain't Cool To Be Crazy About You
TTITLE15=Let's Fall To Pieces Together
TTITLE16=Love Without End, Amen
TTITLE17=Nobody In His Right Mind Would Have Left Her
TTITLE18=Ocean Front Property
TTITLE19=Right Or Wrong
TTITLE20=So Much Like My Dad
TTITLE21=The Chair
TTITLE22=The Chill Of An Early Fall
TTITLE23=What's Going On In Your World
TTITLE24=You Know Me Better Than That
TTITLE25=You Look So Good In Love
EXTD=
EXTT0=
EXTT1=
EXTT2=
EXTT3=
EXTT4=
EXTT5=
EXTT6=
EXTT7=
EXTT8=
EXTT9=
EXTT10=
EXTT11=
EXTT12=
EXTT13=
EXTT14=
EXTT15=
EXTT16=
EXTT17=
EXTT18=
EXTT19=
EXTT20=
EXTT21=
EXTT22=
EXTT23=
EXTT24=
EXTT25=
PLAYORDER=
